<?xml version="1.0" encoding="UTF-8"?> <svg xmlns="http://www.w3.org/2000/svg" width="180" height="44" viewBox="0 0 180 44" fill="none"><mask id="mask0_288_5955" style="mask-type:alpha" maskUnits="userSpaceOnUse" x="8" y="0" width="27" height="18"><path d="M29.757 0.19969C27.939 0.431845 26.4458 1.86667 26.1309 3.68598C26.0632 4.06075 26.0494 4.42887 26.0773 4.78445C26.1677 5.89331 25.8266 6.98907 25.0569 7.78215L24.98 7.86146C24.3287 8.53253 23.4584 8.89849 22.5367 8.95741C22.2666 8.90624 21.9908 8.87927 21.7034 8.8826C21.4279 8.88578 21.1528 8.91913 20.8899 8.97043C19.985 8.9266 19.1187 8.58073 18.4586 7.93689L18.3739 7.85946C17.5866 7.08439 17.221 5.9968 17.2864 4.88613C17.3064 4.53001 17.2843 4.1623 17.2082 3.78919C16.8465 1.97771 15.3275 0.577727 13.4987 0.387758C10.7524 0.0998223 8.49087 2.44232 8.83324 5.19504C9.0635 7.03217 10.4878 8.52976 12.2941 8.8527C12.6662 8.92078 13.0317 8.93465 13.3848 8.90644C14.4857 8.81528 15.5736 9.1586 16.3609 9.93367L16.4397 10.0112C17.1058 10.667 17.4691 11.5495 17.5275 12.4778C17.4884 12.7316 17.4613 12.9853 17.4643 13.2506C17.4901 15.5486 19.3017 17.4036 21.5607 17.5042C21.6026 17.5037 21.6386 17.5093 21.6806 17.5088C21.6985 17.5086 21.7165 17.5084 21.7345 17.5082C21.7524 17.508 21.7764 17.5137 21.8004 17.5134C21.8483 17.5129 21.8961 17.5063 21.944 17.5058C22.0339 17.5047 22.1236 17.4976 22.2134 17.4906C22.2433 17.4842 22.2732 17.4839 22.3031 17.4775C23.9956 17.2649 25.3775 16.0606 25.8507 14.4626C25.9778 14.0509 26.0447 13.6098 26.0397 13.1575C26.0379 13.0007 26.0243 12.856 26.0106 12.7054C25.969 11.6623 26.3169 10.6449 27.0392 9.90063L27.1162 9.82132C27.8858 9.02824 28.9657 8.65985 30.0685 8.72551C30.422 8.74555 30.7871 8.72323 31.1576 8.64656C32.9562 8.28193 34.3465 6.75178 34.5354 4.9098C34.7998 2.31896 32.775 0.146684 30.2659 0.175708C30.0921 0.171685 29.9245 0.179656 29.757 0.19969Z" fill="white"></path></mask><g mask="url(#mask0_288_5955)"><path d="M34.8658 -0.32361L8.36731 -0.0170898L8.56772 17.8176L35.0662 17.5111L34.8658 -0.32361Z" fill="#409537"></path></g><mask id="mask1_288_5955" style="mask-type:alpha" maskUnits="userSpaceOnUse" x="8" y="26" width="27" height="18"><path d="M21.515 26.5005C21.4253 26.5076 21.3354 26.5086 21.2457 26.5157C21.2158 26.5221 21.1859 26.5224 21.156 26.5288C19.4635 26.7414 18.0815 27.9457 17.6084 29.5497C17.4813 29.9614 17.4144 30.4025 17.4195 30.8548C17.4212 31.0056 17.4288 31.1563 17.4485 31.3069C17.4901 32.344 17.1423 33.3674 16.4199 34.1117L16.343 34.191C15.5733 34.9841 14.4934 35.3525 13.3907 35.2868C13.0371 35.2668 12.672 35.2891 12.3015 35.3657C10.5029 35.7304 9.11265 37.2605 8.92373 39.1025C8.64331 41.8624 10.9629 44.1519 13.702 43.8006C15.52 43.5684 17.0132 42.1336 17.3281 40.3143C17.3958 39.9395 17.4096 39.5714 17.3817 39.2158C17.2913 38.1069 17.6324 37.0112 18.4021 36.2181L18.485 36.1387C19.1363 35.4677 20.0066 35.1017 20.9223 35.0428C21.1924 35.094 21.4682 35.121 21.7556 35.1176C22.0311 35.1145 22.3062 35.0811 22.5691 35.0298C23.474 35.0736 24.3403 35.4195 25.0004 36.0634L25.0791 36.1409C25.8664 36.9159 26.232 38.0035 26.1666 39.1142C26.1466 39.4703 26.1687 39.838 26.2448 40.2111C26.6065 42.0226 28.1255 43.4226 29.9544 43.6126C32.6946 43.8945 34.9681 41.5579 34.6198 38.8053C34.3896 36.9742 32.9652 35.4706 31.1589 35.1476C30.7868 35.0795 30.4213 35.0657 30.0682 35.0939C28.9673 35.185 27.8794 34.8417 27.0921 34.0667L27.0134 33.9891C26.3472 33.3333 25.9839 32.4508 25.9315 31.5225C25.9707 31.2747 25.9977 31.015 25.9948 30.7556C25.969 28.4577 24.1574 26.6027 21.8983 26.5021C21.8564 26.5026 21.8204 26.497 21.7845 26.4974C21.7665 26.4976 21.7486 26.4978 21.7306 26.498C21.7126 26.4982 21.6886 26.4925 21.6647 26.4928C21.6048 26.4935 21.5629 26.5 21.515 26.5005Z" fill="white"></path></mask><g mask="url(#mask1_288_5955)"><path d="M34.8849 26.1889L8.36841 26.4956L8.56875 44.3243L35.0852 44.0175L34.8849 26.1889Z" fill="#FE7F65"></path></g><mask id="mask2_288_5955" style="mask-type:alpha" maskUnits="userSpaceOnUse" x="26" y="8" width="18" height="27"><path d="M38.4137 9.02247C36.5895 9.25471 35.1023 10.6896 34.7813 12.5091C34.7137 12.8839 34.6998 13.252 34.7278 13.6076C34.818 14.7105 34.477 15.8124 33.7073 16.6055L33.6304 16.6909C32.9791 17.362 32.1027 17.728 31.181 17.787C30.9349 17.7415 30.6771 17.7204 30.4136 17.7234C28.1319 17.7498 26.2897 19.5749 26.1895 21.8503C26.1899 21.8925 26.1844 21.9288 26.1788 21.965C26.179 21.9831 26.1792 22.0012 26.1794 22.0193C26.1797 22.0435 26.1739 22.0616 26.1741 22.0858C26.1747 22.134 26.1812 22.1822 26.1818 22.2304C26.1828 22.3209 26.1898 22.4113 26.1968 22.5017C26.1971 22.5319 26.2035 22.562 26.2098 22.5921C26.4146 24.2969 27.6162 25.6886 29.2028 26.1649C29.6115 26.2929 30.0494 26.3542 30.4986 26.349C30.6483 26.3473 30.8039 26.3394 30.9475 26.3197C31.9832 26.2775 32.9933 26.6218 33.7323 27.3552L33.8111 27.4388C34.5984 28.2139 34.964 29.3015 34.8986 30.4123C34.8787 30.7684 34.9008 31.1362 34.9769 31.5093C35.3386 33.3209 36.8577 34.721 38.6867 34.911C41.4271 35.193 43.7008 32.8562 43.3524 30.1034C43.1222 28.2721 41.6978 26.7684 39.8913 26.4515C39.5192 26.3834 39.1537 26.3695 38.8006 26.3977C37.7056 26.4888 36.6116 26.1456 35.8243 25.3704L35.7455 25.2869C35.0792 24.631 34.716 23.7545 34.6577 22.8322C34.7086 22.5601 34.7354 22.2823 34.7322 21.9928C34.729 21.7153 34.696 21.4382 34.6451 21.1734C34.6887 20.262 35.0323 19.3893 35.6717 18.7243L35.7487 18.645C36.5184 17.8519 37.5984 17.4835 38.7012 17.5492C39.0548 17.5692 39.4199 17.5469 39.7904 17.4702C41.5892 17.1055 42.9795 15.5753 43.1685 13.7332C43.4328 11.1422 41.4079 8.96974 38.8986 8.99876C38.7488 8.98843 38.5811 8.9964 38.4137 9.02247Z" fill="white"></path></mask><g mask="url(#mask2_288_5955)"><path d="M43.5919 8.82989L25.8891 9.03467L26.186 35.4537L43.8887 35.249L43.5919 8.82989Z" fill="#FDB23C"></path></g><mask id="mask3_288_5955" style="mask-type:alpha" maskUnits="userSpaceOnUse" x="0" y="9" width="18" height="27"><path d="M0.0856296 13.9158C0.315842 15.7471 1.74028 17.2508 3.54676 17.5737C3.91881 17.6358 4.2844 17.6557 4.63747 17.6275C5.73253 17.5364 6.82648 17.8797 7.61383 18.6548L7.69257 18.7323C8.35879 19.3882 8.72202 20.2647 8.7803 21.187C8.72945 21.4591 8.70862 21.7368 8.71187 22.0263C8.71499 22.3038 8.74805 22.5809 8.79894 22.8457C8.75528 23.7572 8.4117 24.6298 7.7723 25.2948L7.6954 25.3801C6.92567 26.1732 5.8457 26.5417 4.74289 26.476C4.38928 26.456 4.02417 26.4783 3.65368 26.555C1.85492 26.9196 0.464575 28.4499 0.275642 30.292C-0.0107875 33.0522 2.31486 35.3357 5.0482 34.9904C6.86641 34.7582 8.35965 33.3233 8.67462 31.5039C8.74228 31.1291 8.75612 30.7609 8.72816 30.4053C8.6379 29.3024 8.97891 28.2006 9.74863 27.4074L9.82554 27.3221C10.4768 26.651 11.3532 26.2849 12.275 26.232C12.521 26.2714 12.7789 26.2986 13.0364 26.2956C15.3241 26.2691 17.1663 24.4441 17.2606 22.1687C17.2601 22.1265 17.2657 22.0903 17.2712 22.048C17.271 22.0299 17.2708 22.0118 17.2706 21.9937C17.2703 21.9696 17.2761 21.9514 17.2758 21.9273C17.2753 21.879 17.2687 21.8308 17.2682 21.7826C17.2612 21.6922 17.2602 21.6017 17.2532 21.5113C17.2468 21.4812 17.2465 21.451 17.2402 21.4209C17.0293 19.7162 15.8338 18.3244 14.2472 17.8481C13.8385 17.7261 13.4005 17.6588 12.9514 17.664C12.8016 17.6658 12.652 17.6735 12.5025 17.6933C11.4727 17.7354 10.4566 17.3913 9.71768 16.6578L9.63888 16.5743C8.85153 15.7991 8.48592 14.7115 8.5513 13.6007C8.57126 13.2446 8.54916 12.8768 8.47309 12.5037C8.11133 10.6921 6.59222 9.29202 4.76328 9.10204C4.59539 9.08589 4.42757 9.07576 4.25988 9.0777C1.73868 9.1129 -0.242886 11.3317 0.0856296 13.9158Z" fill="white"></path></mask><g mask="url(#mask3_288_5955)"><path d="M17.2722 8.83038L-0.430542 9.03516L-0.133665 35.4542L17.5691 35.2494L17.2722 8.83038Z" fill="#6697C2"></path></g><path d="M59.3765 29.1247L52.9567 13.3813H55.2264L60.5982 26.9806L65.97 13.3813H68.2396L61.8438 29.1247H59.3765Z" fill="white"></path><path d="M70.1078 14.9153C70.1078 14.2519 70.6588 13.7129 71.3235 13.7129C71.9943 13.7129 72.5153 14.2578 72.5153 14.9153C72.5153 15.5786 71.9883 16.0939 71.3235 16.0939C70.6528 16.0939 70.1078 15.5727 70.1078 14.9153ZM70.4193 29.1246V17.7228H72.2099V29.1246H70.4193Z" fill="white"></path><path d="M82.9114 29.1246V27.8274C81.9832 28.864 80.6417 29.4089 79.0907 29.4089C77.1564 29.4089 75.0783 28.1117 75.0783 25.63C75.0783 23.0594 77.1324 21.8748 79.0907 21.8748C80.6657 21.8748 81.9772 22.3723 82.9114 23.4089V21.3536C82.9114 19.8432 81.6718 18.9725 80.001 18.9725C78.6176 18.9725 77.4917 19.4464 76.4677 20.554L75.6293 19.3279C76.8689 18.0545 78.3481 17.4385 80.2345 17.4385C82.6958 17.4385 84.696 18.5224 84.696 21.2884V29.1246H82.9114ZM82.9114 26.7198V24.5461C82.2168 23.628 81.0011 23.1542 79.7614 23.1542C78.0666 23.1542 76.8989 24.1907 76.8989 25.63C76.8989 27.093 78.0666 28.1354 79.7614 28.1354C81.0011 28.1354 82.2168 27.6616 82.9114 26.7198Z" fill="white"></path><path d="M87.2535 26.9034L88.4452 25.393C89.4693 26.5717 91.188 27.6615 93.4337 27.6615C96.2723 27.6615 97.1826 26.1512 97.1826 24.9251C97.1826 20.8678 87.7565 23.1304 87.7565 17.5154C87.7565 14.9152 90.0981 13.1265 93.2481 13.1265C95.6555 13.1265 97.5419 13.9498 98.8834 15.3476L97.6917 16.7869C96.4999 15.4661 94.8291 14.8974 93.0864 14.8974C91.2 14.8974 89.8166 15.9103 89.8166 17.397C89.8166 20.9389 99.2427 18.9073 99.2427 24.7829C99.2427 27.0515 97.6677 29.4088 93.3679 29.4088C90.6191 29.4088 88.571 28.3723 87.2535 26.9034Z" fill="white"></path><path d="M101.531 23.4147C101.531 20.0386 103.848 17.4443 107.286 17.4443C109.388 17.4443 110.627 18.2913 111.508 19.4285L110.316 20.4888C109.549 19.4522 108.573 19.0258 107.381 19.0258C104.944 19.0258 103.393 20.8915 103.393 23.4147C103.393 25.9379 104.944 27.8274 107.381 27.8274C108.573 27.8274 109.555 27.3535 110.316 26.3407L111.508 27.4246C110.621 28.5559 109.382 29.4088 107.286 29.4088C103.848 29.4088 101.531 26.7908 101.531 23.4147Z" fill="white"></path><path d="M113.622 14.9153C113.622 14.2519 114.173 13.7129 114.837 13.7129C115.508 13.7129 116.029 14.2578 116.029 14.9153C116.029 15.5786 115.502 16.0939 114.837 16.0939C114.167 16.0939 113.622 15.5727 113.622 14.9153ZM113.927 29.1246V17.7228H115.718V29.1246H113.927Z" fill="white"></path><path d="M118.568 23.4147C118.568 20.1097 120.958 17.4443 124.252 17.4443C127.737 17.4443 129.791 20.1334 129.791 23.5569V24.007H120.485C120.628 26.1571 122.132 27.9458 124.617 27.9458C125.952 27.9458 127.264 27.4246 128.198 26.4828L129.054 27.6378C127.887 28.7691 126.336 29.4088 124.473 29.4088C121.03 29.4088 118.568 26.9804 118.568 23.4147ZM124.228 18.9014C121.766 18.9014 120.551 20.9567 120.455 22.6803H128.024C128 21.0041 126.857 18.9014 124.228 18.9014Z" fill="white"></path><path d="M140.481 29.1246V21.6616C140.481 19.63 139.433 19.0199 137.881 19.0199C136.474 19.0199 135.163 19.8669 134.468 20.7909V29.1246H132.677V17.7228H134.468V19.3753C135.282 18.4099 136.857 17.4385 138.6 17.4385C140.99 17.4385 142.253 18.6408 142.253 21.1226V29.1246H140.481Z" fill="white"></path><path d="M146.259 26.7437V19.2807H144.349V17.7229H146.259V14.6074H148.074V17.7229H150.416V19.2807H148.074V26.3646C148.074 27.2116 148.457 27.8276 149.218 27.8276C149.745 27.8276 150.194 27.5907 150.434 27.33L150.961 28.6746C150.505 29.101 149.865 29.4031 148.835 29.4031C147.116 29.409 146.259 28.4436 146.259 26.7437Z" fill="white"></path><path d="M152.781 14.9153C152.781 14.2519 153.332 13.7129 153.997 13.7129C154.668 13.7129 155.189 14.2578 155.189 14.9153C155.189 15.5786 154.662 16.0939 153.997 16.0939C153.326 16.0939 152.781 15.5727 152.781 14.9153ZM153.087 29.1246V17.7228H154.877V29.1246H153.087Z" fill="white"></path><path d="M159.045 29.1248V19.2808H157.135V17.723H159.045V16.8523C159.045 14.4891 160.405 13.1445 162.387 13.1445C163.081 13.1445 163.674 13.263 164.153 13.5236L163.698 14.8681C163.411 14.7023 163.099 14.6075 162.674 14.6075C161.483 14.6075 160.836 15.3894 160.836 16.8523V17.723H163.177V19.2808H160.836V29.1248H159.045ZM165.016 14.9155C165.016 14.2521 165.567 13.7131 166.231 13.7131C166.902 13.7131 167.423 14.2581 167.423 14.9155C167.423 15.5789 166.896 16.0942 166.231 16.0942C165.561 16.0942 165.016 15.573 165.016 14.9155ZM165.321 29.1248V17.723H167.112V29.1248H165.321Z" fill="white"></path><path d="M170.023 23.4147C170.023 20.0386 172.34 17.4443 175.778 17.4443C177.88 17.4443 179.119 18.2913 180 19.4285L178.808 20.4888C178.041 19.4522 177.065 19.0258 175.874 19.0258C173.436 19.0258 171.891 20.8915 171.891 23.4147C171.891 25.9379 173.442 27.8274 175.874 27.8274C177.065 27.8274 178.047 27.3535 178.808 26.3407L180 27.4246C179.119 28.5559 177.874 29.4088 175.778 29.4088C172.34 29.4088 170.023 26.7908 170.023 23.4147Z" fill="white"></path></svg> 